HIERARCHY
ROOT root
{
	OFFSET 0.000000 0.000000 0.000000
	CHANNELS 6 Xposition Yposition Zposition Zrotation Yrotation Xrotation
	JOINT lhip
	{
		OFFSET 0.058581 -0.082280 -0.017664
		CHANNELS 3 Zrotation Yrotation Xrotation
		JOINT lknee
		{
			OFFSET 0.043451 -0.386469 0.008037
			CHANNELS 3 Zrotation Yrotation Xrotation
			JOINT lankle
			{
				OFFSET -0.014790 -0.426874 -0.037428
				CHANNELS 3 Zrotation Yrotation Xrotation
				JOINT ltoe
				{
					OFFSET 0.041054 -0.060286 0.122042
					CHANNELS 3 Zrotation Yrotation Xrotation
					End Site
					{
						OFFSET 0.000000 0.000000 0.000000
					}
				}
			}
		}
	}
	JOINT rhip
	{
		OFFSET -0.060310 -0.090513 -0.013543
		CHANNELS 3 Zrotation Yrotation Xrotation
		JOINT rknee
		{
			OFFSET -0.043257 -0.383688 -0.004843
			CHANNELS 3 Zrotation Yrotation Xrotation
			JOINT rankle
			{
				OFFSET 0.019056 -0.420046 -0.034562
				CHANNELS 3 Zrotation Yrotation Xrotation
				JOINT rtoe
				{
					OFFSET -0.034840 -0.062106 0.130323
					CHANNELS 3 Zrotation Yrotation Xrotation
					End Site
					{
						OFFSET 0.000000 0.000000 0.000000
					}
				}
			}
		}
	}
	JOINT lowerback
	{
		OFFSET 0.004439 0.124404 -0.038385
		CHANNELS 3 Zrotation Yrotation Xrotation
		JOINT upperback
		{
			OFFSET 0.004488 0.137956 0.026820
			CHANNELS 3 Zrotation Yrotation Xrotation
			JOINT chest
			{
				OFFSET -0.002265 0.056032 0.002855
				CHANNELS 3 Zrotation Yrotation Xrotation
				JOINT lowerneck
				{
					OFFSET -0.013390 0.211636 -0.033468
					CHANNELS 3 Zrotation Yrotation Xrotation
					JOINT upperneck
					{
						OFFSET 0.010113 0.088937 0.050410
						CHANNELS 3 Zrotation Yrotation Xrotation
						End Site
						{
							OFFSET 0.000000 0.000000 0.000000
						}
					}
				}
				JOINT lclavicle
				{
					OFFSET 0.071702 0.114000 -0.018898
					CHANNELS 3 Zrotation Yrotation Xrotation
					JOINT lshoulder
					{
						OFFSET 0.122921 0.045205 -0.019046
						CHANNELS 3 Zrotation Yrotation Xrotation
						JOINT lelbow
						{
							OFFSET 0.255332 -0.015649 -0.022946
							CHANNELS 3 Zrotation Yrotation Xrotation
							JOINT lwrist
							{
								OFFSET 0.265709 0.012698 -0.007375
								CHANNELS 3 Zrotation Yrotation Xrotation
								End Site
								{
									OFFSET 0.000000 0.000000 0.000000
								}
							}
						}
					}
				}
				JOINT rclavicle
				{
					OFFSET -0.082954 0.112472 -0.023707
					CHANNELS 3 Zrotation Yrotation Xrotation
					JOINT rshoulder
					{
						OFFSET -0.113228 0.046853 -0.008472
						CHANNELS 3 Zrotation Yrotation Xrotation
						JOINT relbow
						{
							OFFSET -0.260127 -0.014369 -0.031269
							CHANNELS 3 Zrotation Yrotation Xrotation
							JOINT rwrist
							{
								OFFSET -0.269108 0.006794 -0.006027
								CHANNELS 3 Zrotation Yrotation Xrotation
								End Site
								{
									OFFSET 0.000000 0.000000 0.000000
								}
							}
						}
					}
				}
			}
		}
	}
}
MOTION
Frames: 14
Frame Time: 0.033333
0.238723 0.211752 0.990066 79.277808 1.657541 85.842202 3.577689 1.793949 5.624293 0.935400 -2.457546 6.024184 1.507805 10.824408 -14.471629 0.000000 -0.000000 0.000000 -5.554320 -1.166083 6.389379 0.409437 -1.753233 -2.968775 3.487950 -4.605219 -6.788808 0.000000 -0.000000 0.000000 0.162645 1.117542 0.020591 1.904078 -4.706686 6.282708 0.374268 -2.304126 -3.404564 -6.757581 -10.908472 18.670064 9.110662 -15.369860 -20.237276 -16.285804 -0.619138 2.513387 -64.056441 -5.784411 11.690792 15.425955 -17.600673 -3.671791 -21.716708 -16.152742 5.744709 13.808227 8.731707 0.341107 58.490436 3.062815 8.978066 -13.747190 16.095771 -6.485302 17.848698 15.285853 -6.583035 
0.238593 0.212293 0.990035 79.433922 1.612232 85.976502 3.501635 1.559999 5.429566 0.903162 -2.268648 6.055187 1.451625 10.682464 -14.432964 0.000000 -0.000000 0.000000 -5.649590 -1.202958 6.230690 0.438643 -2.000227 -2.919171 3.580738 -4.532617 -6.779262 0.000000 -0.000000 0.000000 0.046411 1.134322 -0.252061 1.973207 -4.749091 6.467304 0.343796 -2.506512 -3.175966 -6.094044 -10.190906 18.534707 9.107634 -16.045916 -20.475318 -16.408833 -0.694708 2.464999 -64.005939 -5.911075 10.441505 15.631254 -17.219955 -3.658772 -22.842554 -16.006818 7.987683 14.370406 8.939243 0.416874 57.877803 2.813591 9.841516 -14.464034 17.739059 -0.386178 17.171481 13.638211 3.288808 
0.238374 0.212822 0.989980 79.573699 1.579781 86.066356 3.440514 1.395111 5.270546 0.896884 -2.067577 6.098967 1.475444 10.475261 -14.410947 0.000000 -0.000000 0.000000 -5.729701 -1.213211 6.117443 0.486039 -2.326911 -2.894768 3.510456 -4.391505 -6.727164 0.000000 -0.000000 0.000000 -0.146528 1.190064 -0.395577 2.144834 -4.835195 6.683439 0.394583 -2.605337 -3.125848 -5.776114 -9.745613 18.437050 9.153543 -16.503199 -20.588255 -16.224658 -0.780882 2.276445 -64.356554 -6.376002 9.040754 15.327527 -15.675927 -6.412404 -22.766758 -16.113051 7.303181 14.740667 9.188666 0.485834 57.484350 2.915125 10.182429 -15.229857 17.423581 2.131115 17.387432 12.921995 9.365257 
0.238026 0.213570 0.989793 79.612651 1.571110 86.066466 3.409248 1.571027 5.205202 0.869461 -2.270191 6.130014 1.535348 10.502778 -14.488020 0.000000 -0.000000 0.000000 -5.774670 -1.276438 6.093032 0.457408 -2.234987 -2.908314 3.458737 -4.429934 -6.682603 0.000000 -0.000000 0.000000 -0.114447 1.199038 -0.123536 2.099430 -4.746570 6.601637 0.417283 -2.428559 -3.289503 -6.013630 -10.357646 18.542932 9.171433 -16.095117 -20.232180 -16.182657 -0.713414 2.314203 -64.560453 -6.474625 9.958486 15.152776 -15.247879 -7.138126 -20.573886 -16.052844 5.228979 14.599807 9.107746 0.450239 57.770686 3.471914 9.311475 -14.705234 14.579408 -3.274450 16.708494 13.715787 2.374951 
0.237782 0.214150 0.989400 79.587695 1.579435 86.034352 3.410882 1.842884 5.208077 0.828588 -2.655082 6.114784 1.557537 10.721292 -14.485766 0.000000 -0.000000 0.000000 -5.782386 -1.292249 6.137127 0.431271 -1.919734 -3.004726 3.428645 -4.715309 -6.592213 0.000000 -0.000000 0.000000 0.112127 1.143917 0.281053 1.844216 -4.577056 6.251493 0.381815 -2.228003 -3.360536 -6.423208 -11.295002 18.694057 9.241682 -15.299423 -19.798031 -16.499377 -0.547839 2.596527 -64.367363 -6.184611 11.967322 15.688977 -15.901897 -4.994803 -18.830170 -15.916805 4.295999 14.145872 8.839758 0.301311 58.311724 3.990673 8.319748 -13.495222 12.744141 -9.971430 15.614019 15.068276 -9.466928 
0.237443 0.214778 0.988957 79.618719 1.583096 86.045322 3.388123 2.032510 5.145029 0.792949 -2.995145 6.108614 1.621717 10.920317 -14.480562 0.000000 -0.000000 0.000000 -5.781056 -1.273366 6.160103 0.384391 -1.675072 -3.142606 3.385445 -5.021807 -6.475441 0.000000 -0.000000 0.000000 0.332674 1.115215 0.772322 1.581295 -4.414624 5.654525 0.346846 -2.093818 -3.299121 -6.816881 -12.231741 18.935061 9.395299 -14.467957 -19.492917 -16.562772 -0.342965 2.854697 -64.334973 -6.064356 13.608686 16.114989 -16.038748 -4.151291 -17.426584 -15.754852 2.198449 13.325700 8.435715 -0.003914 59.267329 4.512250 7.341879 -12.571800 11.021849 -17.107102 15.007102 16.287571 -21.694032 
0.237263 0.215263 0.988928 79.780790 1.531544 86.125730 3.301874 1.861987 5.005509 0.774330 -2.906168 6.138447 1.618759 10.821954 -14.468358 0.000000 -0.000000 0.000000 -5.881585 -1.297526 6.100102 0.412504 -1.907428 -3.153960 3.376590 -4.928994 -6.457459 0.000000 -0.000000 0.000000 0.197316 1.152039 0.692856 1.651703 -4.441488 5.795877 0.421398 -2.212884 -3.225619 -6.689939 -12.072260 18.767058 9.602764 -14.703905 -19.622580 -16.562608 -0.314486 2.778350 -64.363637 -6.366298 12.406952 15.730066 -15.429548 -6.697793 -16.809571 -16.299086 0.598491 13.617579 8.584160 0.170756 59.036311 4.235910 7.743978 -12.477958 11.610569 -15.422083 14.603505 16.377622 -18.839033 
0.237044 0.215695 0.988818 80.000665 1.490522 86.280492 3.221769 1.518330 4.797426 0.770537 -2.617874 6.134646 1.592684 10.610519 -14.359973 0.000000 -0.000000 0.000000 -5.956361 -1.366263 5.939140 0.423581 -2.287498 -3.100400 3.368526 -4.697450 -6.485284 0.000000 -0.000000 0.000000 -0.016011 1.209281 0.445571 1.848841 -4.623526 6.109538 0.454771 -2.368115 -3.153438 -6.260900 -11.509260 18.463613 9.913241 -15.447186 -19.985985 -16.541884 -0.406000 2.500879 -64.156052 -6.724107 10.149642 14.914835 -14.672225 -9.697226 -17.985513 -17.097821 0.874065 14.298690 8.785438 0.345635 58.424764 3.549894 8.629010 -13.208848 12.823362 -9.054544 15.938226 15.685681 -7.385046 
0.236812 0.216049 0.988898 80.156944 1.455739 86.364347 3.161671 1.343552 4.676440 0.738110 -2.538178 6.120218 1.597379 10.534607 -14.314559 0.000000 -0.000000 0.000000 -6.016533 -1.366946 5.862723 0.431469 -2.412949 -3.088988 3.341274 -4.707809 -6.518795 0.000000 -0.000000 0.000000 -0.137427 1.205932 0.355890 1.934804 -4.738922 6.353785 0.452889 -2.448936 -3.200299 -5.966436 -11.380135 18.241905 10.109927 -15.995294 -20.193040 -16.700117 -0.425883 2.454134 -63.809696 -6.758959 9.352337 14.646781 -14.561556 -9.623081 -19.629974 -17.399360 2.462506 14.748817 8.883024 0.373496 58.147583 3.186914 9.178318 -13.604865 13.635727 -5.156029 16.483966 14.971315 -1.058391 
0.236377 0.216585 0.988838 80.273683 1.433899 86.447860 3.124022 1.349168 4.512085 0.676898 -2.655515 6.142933 1.627696 10.556006 -14.321054 0.000000 -0.000000 0.000000 -6.068329 -1.361892 5.763669 0.431680 -2.348633 -3.096617 3.322942 -4.864722 -6.512412 0.000000 -0.000000 0.000000 -0.218051 1.138192 0.490626 1.944313 -4.789478 6.376093 0.498868 -2.460442 -3.303924 -5.983581 -11.940706 18.111739 10.263510 -16.275942 -20.276935 -16.794734 -0.455764 2.629519 -63.683623 -6.649195 9.873804 14.563853 -14.972501 -8.280059 -19.982511 -17.194142 3.130947 14.858424 9.052636 0.274796 58.399851 3.284758 9.336478 -13.250220 13.235693 -4.996873 15.949429 14.868376 -1.606925 
0.236085 0.217014 0.988679 80.341599 1.441469 86.541988 3.126885 1.416318 4.318755 0.588969 -2.795785 6.195172 1.625324 10.591608 -14.303307 0.000000 -0.000000 0.000000 -6.105824 -1.369999 5.668120 0.455462 -2.254698 -3.151906 3.299923 -4.994545 -6.474053 0.000000 -0.000000 0.000000 -0.245147 1.047502 0.754239 1.912196 -4.792856 6.129075 0.568810 -2.445279 -3.310792 -6.105800 -12.696278 17.983203 10.420462 -16.362595 -20.445098 -16.842008 -0.408593 2.730277 -63.752406 -6.610951 10.588037 14.553074 -15.285334 -7.511898 -19.433808 -17.225696 2.775758 14.726501 9.081683 0.120560 58.755236 3.445425 9.254694 -12.611401 12.391946 -6.514168 15.432953 15.016116 -4.745936 
0.236002 0.217605 0.988571 80.367730 1.473270 86.651279 3.134150 1.514853 4.054140 0.503273 -2.930518 6.417991 1.654059 10.643496 -14.414378 0.000000 -0.000000 0.000000 -6.140120 -1.378687 5.584444 0.489313 -2.092161 -3.243880 3.257006 -5.122065 -6.450909 0.000000 -0.000000 0.000000 -0.285226 0.989808 1.025917 1.933763 -4.833357 5.899201 0.631205 -2.422487 -3.244290 -6.193360 -13.493716 17.728714 10.637083 -16.412505 -21.024310 -16.998325 -0.285778 2.528125 -63.830717 -6.514060 11.258481 14.623047 -15.367217 -6.954390 -19.129797 -17.071713 2.814716 14.649737 8.947844 -0.205596 59.017976 3.369652 9.180526 -12.065035 11.965541 -7.745391 15.281469 15.219151 -6.990265 
0.235445 0.218245 0.988612 80.464674 1.524976 86.759389 3.123365 1.448857 3.478176 0.414300 -2.954985 7.174613 1.679286 10.661796 -14.668705 0.000000 -0.000000 0.000000 -6.146989 -1.345284 5.497487 0.502376 -2.008671 -3.334853 3.174320 -5.245356 -6.422590 0.000000 -0.000000 0.000000 -0.320939 0.980971 1.213616 2.023759 -4.971529 5.801747 0.707309 -2.570061 -2.899274 -6.145666 -13.996954 17.201638 10.847054 -16.400323 -22.667397 -17.263697 -0.258676 2.001191 -63.825436 -6.461999 11.457670 14.672605 -15.263938 -7.290767 -19.315566 -16.903006 2.964661 14.696399 8.941471 -0.776038 59.090366 3.285748 9.324388 -11.960045 12.087053 -7.951167 15.587658 15.224309 -7.038154 
0.234946 0.219163 0.988659 80.529874 1.577826 86.851692 3.052776 1.325834 2.770844 0.332574 -2.878981 8.225308 1.727636 10.697391 -15.018918 0.000000 -0.000000 0.000000 -6.166804 -1.292498 5.475517 0.492795 -1.961877 -3.520477 3.082016 -5.339196 -6.383698 0.000000 -0.000000 0.000000 -0.300678 0.982215 1.519548 2.083711 -5.106901 5.629135 0.812813 -2.781991 -2.442367 -6.117349 -14.353087 16.456546 10.995285 -16.259317 -24.874375 -17.579746 -0.202868 1.435738 -63.829507 -6.359571 11.213144 15.030631 -15.570334 -8.392534 -19.621333 -16.897767 2.679381 14.785929 9.014202 -1.351300 59.016492 3.166147 9.477514 -11.996280 12.696423 -7.768835 15.898250 15.116200 -6.332481 
